# xmcd CD database file generated by Grip 3.0.5
# 
# Track frame offsets:
#       150
#       20520
#       39640
#       60825
#       83175
#       98520
#       116450
#       142078
#       160295
#       179995
#       196818
#       217250
# 
# Disc length: 3133 seconds
# 
# Revision: 2
# Processed by: cddbd v1.4PL0 Copyright (c) Steve Scherf et al.
# Submitted via: Grip 3.0.5
# 
DISCID=a80c3b0c
DTITLE=Mahlathini and Mahotella Queens - Mbaqanga
DYEAR=1991
DGENRE=Ethnic
TTITLE0=Mbaqanga
TTITLE1=Vuya
TTITLE2=Bayeza
TTITLE3=Umasihlalisane
TTITLE4=Jive Motella
TTITLE5=Thonthodi
TTITLE6=Hayi Kabi
TTITLE7=Stop Crying
TTITLE8=Bon Jour
TTITLE9=Josefa
TTITLE10=Noluthando
TTITLE11=Kwa Makhutha
EXTD=
EXTT0=
EXTT1=
EXTT2=
EXTT3=
EXTT4=
EXTT5=
EXTT6=
EXTT7=
EXTT8=
EXTT9=
EXTT10=
EXTT11=
PLAYORDER=
